<svg width="410" height="16" viewBox="0 0 410 16" fill="none" xmlns="http://www.w3.org/2000/svg">
<g clip-path="url(#clip0_22_23)">
<path d="M410 0.470587C395.756 0.470587 5.15723 -2.96116e-06 0 0V16C46.4151 16 332.642 15.5453 345.535 15.5294C358.428 15.5135 350.692 15.5294 373.899 15.5294C381.635 15.5294 379.057 15.5294 389.371 15.5294L410 15.5294V0.470587Z" fill="#4B4B4B"/>
<path d="M10 5.17C11.934 5.17 13.5 6.64298 13.5 8.46C13.5 10.278 11.934 11.75 10 11.75C8.067 11.75 6.5 10.278 6.5 8.46C6.5 6.64298 8.067 5.17 10 5.17Z" fill="#E2574C"/>
<path d="M20 5.17C21.934 5.17 23.5 6.64298 23.5 8.46C23.5 10.278 21.934 11.75 20 11.75C18.067 11.75 16.5 10.278 16.5 8.46C16.5 6.64298 18.067 5.17 20 5.17Z" fill="#EFC75E"/>
<path d="M30 5.17C31.934 5.17 33.5 6.64298 33.5 8.46C33.5 10.278 31.934 11.75 30 11.75C28.067 11.75 26.5 10.278 26.5 8.46C26.5 6.64298 28.067 5.17 30 5.17Z" fill="#3DB39E"/>
<path d="M410 5.17H40.5C39.396 5.17 38.5 6.01224 38.5 7.05V9.87C38.5 10.9087 39.396 11.75 40.5 11.75H410C753.47 11.75 412.5 5.17 410 5.17Z" fill="white"/>
</g>
<defs>
<clipPath id="clip0_22_23">
<rect width="410" height="16" fill="white"/>
</clipPath>
</defs>
</svg>
