<svg width="56" height="51" viewBox="0 0 56 51" fill="none" xmlns="http://www.w3.org/2000/svg">
<rect width="21" height="20" fill="white"/>
<rect x="26" width="21" height="20" fill="white"/>
<rect x="37.8928" y="23" width="21" height="20" transform="rotate(33 37.8928 23)" fill="white"/>
<path d="M5.25 21V4.775H10.975C12.8 4.775 14.2208 5.225 15.2375 6.125C16.2625 7.025 16.775 8.3 16.775 9.95C16.775 11.5833 16.2625 12.85 15.2375 13.75C14.2208 14.65 12.8 15.1 10.975 15.1H8.225V21H5.25ZM8.225 12.525H10.975C11.8917 12.525 12.5833 12.2833 13.05 11.8C13.5167 11.3167 13.75 10.7 13.75 9.95C13.75 9.18333 13.5167 8.55417 13.05 8.0625C12.5833 7.57083 11.8917 7.325 10.975 7.325H8.225V12.525Z" fill="black" fill-opacity="0.831373"/>
<path d="M30.9853 43.5149L39.822 29.9074L44.6234 33.0255C46.154 34.0195 47.1005 35.1707 47.463 36.4792C47.8324 37.7923 47.5679 39.1407 46.6692 40.5245C45.7796 41.8943 44.6599 42.6775 43.3101 42.8741C41.9673 43.0752 40.5306 42.6787 39 41.6848L36.6937 40.187L33.4803 45.1352L30.9853 43.5149ZM38.0961 38.0274L40.4025 39.5252C41.1712 40.0244 41.8829 40.1985 42.5376 40.0473C43.1922 39.8961 43.7237 39.506 44.1322 38.877C44.5498 38.234 44.6968 37.5793 44.5732 36.9127C44.4496 36.2462 44.0034 35.6634 43.2346 35.1641L40.9282 33.6663L38.0961 38.0274Z" fill="black" fill-opacity="0.831373"/>
<rect y="25" width="21" height="20" fill="white"/>
</svg>
